<?xml version="1.0" standalone="no"?>
<!DOCTYPE svg PUBLIC "-//W3C//DTD SVG 20010904//EN"
 "http://www.w3.org/TR/2001/REC-SVG-20010904/DTD/svg10.dtd">
<svg version="1.0" xmlns="http://www.w3.org/2000/svg"
 width="696.000000pt" height="442.000000pt" viewBox="0 0 696.000000 442.000000"
 preserveAspectRatio="xMidYMid meet">
<metadata>
Created by potrace 1.16, written by Peter Selinger 2001-2019
</metadata>
<g transform="translate(0.000000,442.000000) scale(0.100000,-0.100000)"
fill="#000000" stroke="none">
<path d="M0 2209 l0 -2209 912 0 c910 0 911 0 893 20 -10 11 -24 20 -31 20 -7
0 -14 3 -16 8 -1 4 -30 25 -63 46 -33 21 -64 44 -70 50 -5 7 -28 25 -50 41
-152 113 -255 208 -255 236 0 9 -24 37 -53 63 -28 26 -56 52 -62 57 -5 6 -50
52 -100 102 l-90 92 6 60 c14 138 53 344 71 379 6 11 20 47 32 81 23 66 71
130 176 235 36 36 83 87 105 114 22 27 50 61 63 75 32 35 49 76 61 150 6 35
17 71 25 80 7 9 21 31 31 50 17 33 62 80 78 81 5 0 15 6 22 13 8 6 20 17 27
24 7 6 34 33 59 60 77 81 231 203 257 203 14 0 93 80 127 129 36 52 129 146
210 213 33 28 65 55 70 62 23 29 176 127 228 147 47 18 57 26 57 45 0 13 -3
24 -7 25 -5 0 -18 2 -30 3 -59 7 -93 63 -109 185 -14 107 36 173 92 121 13
-13 26 -21 29 -19 2 3 7 35 9 71 3 36 11 78 17 94 6 16 13 58 16 94 8 109 81
207 175 235 67 20 164 19 219 -1 30 -11 73 -16 135 -15 209 3 273 -42 274
-191 0 -21 5 -38 11 -38 7 0 9 -13 5 -37 -4 -21 -2 -58 3 -83 5 -25 9 -35 10
-24 2 45 61 56 61 11 0 -25 -41 -141 -52 -145 -4 -2 -8 -8 -8 -14 0 -7 4 -7
13 0 18 15 57 -12 57 -39 0 -20 -15 -26 -25 -9 -8 13 -45 13 -45 0 0 -5 9 -14
20 -20 40 -22 13 -148 -44 -205 -30 -30 -46 -32 -46 -5 0 11 4 20 9 20 5 0 12
11 15 25 4 15 18 30 33 36 23 9 25 13 20 50 -11 82 -47 75 -47 -9 0 -32 -6
-50 -25 -70 -14 -15 -25 -31 -25 -37 0 -5 -11 -32 -25 -59 -14 -27 -25 -57
-25 -67 0 -9 -6 -19 -13 -22 -7 -2 -23 -42 -36 -88 -12 -46 -29 -95 -36 -109
-15 -28 -138 -98 -174 -99 -22 -1 -23 2 -17 39 4 26 1 50 -10 72 -15 32 -16
33 -71 29 -58 -3 -114 10 -170 41 -18 10 -33 15 -33 11 0 -16 98 -132 146
-173 30 -25 54 -48 54 -52 0 -4 -10 -14 -22 -21 -17 -11 -41 -13 -94 -7 -63 6
-80 13 -142 55 -82 54 -92 75 -92 189 0 61 -2 67 -16 55 -8 -7 -22 -25 -30
-40 -8 -16 -25 -39 -38 -52 -57 -57 -82 -132 -107 -318 -20 -158 -21 -183 -9
-233 7 -31 19 -61 26 -67 7 -6 16 -30 19 -53 9 -56 -20 -289 -56 -461 -29
-132 -30 -152 -28 -345 2 -309 -4 -274 52 -278 43 -3 62 4 182 67 139 74 159
81 168 57 8 -21 -72 -102 -108 -111 -47 -11 -77 -45 -39 -45 30 0 113 -44 125
-67 22 -40 2 -47 -100 -37 -89 9 -215 5 -196 -7 10 -7 65 -19 168 -39 31 -6
83 -25 115 -40 83 -43 107 -46 126 -19 13 20 20 22 43 13 20 -7 28 -16 28 -34
l0 -25 -145 3 c-80 2 -169 5 -198 8 -50 4 -92 -7 -92 -26 0 -17 140 -40 242
-40 113 0 140 -8 119 -34 -22 -26 -79 -37 -228 -42 -97 -4 -143 -2 -148 6 -9
14 -35 -6 -35 -26 0 -26 75 -54 144 -54 76 0 96 -6 96 -29 0 -14 -15 -20 -64
-29 -86 -16 -107 -15 -174 8 -74 27 -194 50 -221 43 -12 -3 -27 -1 -34 4 -6 5
-30 10 -52 12 -22 1 -53 11 -69 23 -19 14 -31 17 -34 10 -2 -6 -14 -26 -27
-44 -51 -71 -87 -140 -82 -158 3 -10 1 -39 -4 -64 -20 -110 50 -132 79 -25 10
38 70 138 105 176 25 28 72 30 85 6 7 -13 0 -44 -25 -108 -36 -95 -71 -142
-113 -152 -53 -12 -99 -43 -100 -66 0 -4 59 -6 132 -5 l132 3 9 34 c5 19 15
44 23 55 8 11 14 30 14 43 0 50 43 100 61 71 8 -13 5 -42 -17 -129 -8 -31 -14
-62 -14 -68 0 -8 158 -11 560 -11 l560 0 0 23 c0 13 -18 106 -40 208 -27 122
-44 230 -50 319 -11 159 -12 162 -89 395 -108 327 -113 353 -115 563 -1 171 0
187 20 221 11 21 24 57 28 80 7 49 29 96 58 128 11 11 24 36 28 55 5 18 16 56
24 84 8 28 17 102 20 165 4 63 9 128 12 146 6 40 49 93 75 93 10 0 19 5 19 10
0 6 -7 10 -15 10 -16 0 -20 16 -6 24 5 3 7 15 4 26 -6 21 20 29 32 10 14 -22
65 1 65 30 0 30 44 -19 79 -88 37 -74 41 -78 90 -96 101 -36 386 -187 426
-225 22 -21 68 -57 103 -81 34 -24 62 -47 62 -52 0 -4 30 -28 68 -52 37 -24
87 -66 111 -94 25 -28 53 -53 64 -56 11 -2 16 -9 12 -16 -10 -16 17 -53 104
-141 42 -42 90 -94 106 -114 17 -21 35 -43 41 -49 6 -6 13 -22 17 -36 3 -14
20 -44 38 -68 23 -32 34 -40 44 -32 7 6 20 8 28 4 18 -7 11 -34 -9 -34 -8 0
-14 -2 -14 -5 0 -2 25 -46 55 -96 l55 -92 -1 -81 c-2 -95 -22 -143 -71 -174
l-32 -21 28 -12 c21 -10 37 -10 69 -2 46 13 140 -1 245 -33 44 -14 57 -15 77
-4 20 11 30 11 52 1 24 -11 26 -14 10 -22 -25 -14 -22 -20 32 -59 64 -46 71
-74 27 -115 -44 -41 -84 -98 -79 -112 2 -6 -5 -17 -16 -25 -17 -12 -18 -19 -9
-67 10 -59 6 -81 -17 -81 -19 0 -25 76 -9 127 4 16 2 23 -7 23 -24 0 -39 -51
-39 -134 0 -63 5 -90 25 -135 38 -83 37 -82 80 -97 54 -18 75 -46 75 -100 l0
-44 90 0 c85 0 115 11 70 25 -35 11 -77 64 -72 91 4 22 9 24 61 24 31 0 65 6
76 14 11 7 33 15 48 18 35 7 43 -11 53 -107 l7 -65 553 0 554 0 0 244 c0 186
-3 246 -12 250 -10 5 -10 7 0 12 21 10 14 33 -8 27 -17 -5 -20 0 -20 31 0 29
4 36 20 36 20 0 20 7 20 1800 l0 1800 -40 0 c-36 0 -40 3 -40 24 0 14 5 37 10
52 9 23 7 31 -11 51 -13 13 -34 23 -50 23 -15 0 -29 7 -33 15 -7 19 -26 20
-26 1 0 -23 -15 -27 -50 -15 -28 10 -31 15 -26 40 l5 29 -3224 0 c-2238 0
-3226 -3 -3230 -10 -5 -8 -11 -8 -20 0 -8 7 -54 10 -119 9 l-106 -1 0 -2209z
m2570 1981 c0 -5 -4 -10 -10 -10 -5 0 -10 -7 -10 -15 0 -20 12 -19 43 5 14 11
27 20 30 20 3 0 7 -9 10 -20 4 -14 0 -20 -11 -20 -13 0 -14 -2 -3 -12 10 -11
15 -9 26 6 14 19 15 19 22 0 4 -10 13 -25 21 -33 11 -12 15 -12 22 -1 6 10 10
8 18 -6 5 -11 7 -25 4 -33 -2 -7 2 -17 9 -22 10 -6 7 -9 -10 -9 -13 0 -22 -3
-18 -6 3 -3 2 -11 -4 -18 -5 -6 -18 -23 -30 -38 -11 -16 -26 -28 -34 -28 -12
0 -65 61 -65 75 0 3 -16 23 -35 43 -19 20 -35 42 -35 49 0 7 -9 17 -20 23 -11
6 -24 19 -30 30 -10 19 -8 19 33 14 28 -4 47 -2 51 5 9 14 26 14 26 1z m2808
-964 c6 -3 13 -2 17 3 7 12 125 13 125 1 0 -4 12 -11 27 -15 19 -4 29 -2 35 9
7 12 14 14 28 6 10 -5 30 -10 44 -10 14 0 26 -3 27 -7 0 -5 3 -19 5 -33 3 -14
5 -40 5 -57 -1 -27 3 -33 19 -33 27 0 26 -28 -2 -32 -32 -5 -35 -28 -4 -28 29
0 35 -20 11 -40 -14 -12 -14 -15 0 -30 17 -19 2 -42 -21 -33 -8 3 -14 -1 -14
-11 0 -10 9 -16 24 -16 29 0 41 -24 20 -41 -12 -10 -12 -14 6 -26 22 -16 26
-33 8 -33 -7 0 -20 -4 -27 -9 -12 -8 -11 -13 10 -30 22 -19 23 -22 7 -34 -16
-13 -16 -15 -1 -30 16 -16 16 -18 -2 -32 -20 -15 -20 -15 0 -31 11 -9 16 -18
10 -20 -23 -9 -39 -26 -30 -30 6 -2 17 -9 25 -15 13 -9 13 -12 -3 -22 -54 -35
-54 -35 -24 -46 29 -11 37 -31 13 -31 -24 0 -29 -20 -10 -35 23 -17 19 -21
-27 -30 -31 -6 -37 -4 -42 14 -4 18 -9 19 -40 10 -20 -5 -77 -7 -129 -3 -100
6 -135 7 -199 3 -47 -2 -76 17 -38 25 13 3 76 8 139 10 169 7 188 12 169 47
-9 18 -20 20 -82 19 -89 -1 -258 9 -312 20 l-40 8 45 1 c25 1 58 8 73 16 21
10 34 12 47 5 27 -14 33 -12 27 10 -3 10 0 21 7 23 26 10 -8 19 -91 24 -146 8
-167 43 -26 43 68 0 100 11 68 24 -8 3 -15 12 -15 21 0 20 -10 19 -25 -1 -13
-19 -59 -10 -52 10 6 15 -46 36 -64 26 -13 -8 -59 8 -59 21 0 4 42 11 93 15
87 8 92 10 95 33 4 26 -15 44 -37 36 -7 -3 -20 0 -27 6 -8 6 -24 9 -36 6 -11
-3 -30 -2 -40 4 -12 6 -24 6 -37 0 -14 -8 -22 -7 -31 4 -11 13 -7 15 26 15 22
0 62 11 90 24 87 40 84 64 -8 67 -69 2 -102 18 -43 20 22 1 63 3 90 5 28 1 77
4 111 6 70 4 106 26 77 49 -9 8 -41 15 -72 16 -78 3 -218 30 -171 33 141 9
345 8 357 -1 9 -8 13 -8 13 0 0 6 9 11 21 11 15 0 19 5 15 15 -3 9 3 19 14 25
16 9 20 8 20 -5 0 -8 7 -15 16 -15 9 0 14 7 12 18 -5 23 -86 36 -109 16 -14
-12 -20 -11 -44 8 -24 18 -39 21 -103 20 -74 -1 -96 3 -88 17 6 8 119 7 134
-3z m657 -1186 c8 -38 21 -46 51 -30 19 11 26 11 40 0 14 -13 14 -15 -2 -27
-10 -7 -29 -13 -43 -13 -14 0 -33 -4 -41 -10 -9 -6 -17 -5 -21 2 -6 9 -12 8
-24 -2 -12 -10 -13 -15 -4 -21 7 -4 18 -5 25 -2 7 2 28 -3 47 -12 27 -13 33
-20 30 -39 -6 -28 13 -67 30 -63 6 1 13 -9 15 -22 3 -19 0 -22 -13 -17 -46 17
-68 18 -80 3 -10 -14 -16 -14 -62 1 -28 9 -54 20 -57 23 -3 3 -8 24 -11 46 -4
31 0 47 16 67 17 22 18 26 5 26 -9 0 -16 8 -16 17 0 20 28 53 47 53 7 0 13 4
13 9 0 12 29 41 40 41 5 0 11 -13 15 -30z m-39 -268 c5 -5 28 -15 52 -22 33
-10 48 -11 68 -1 l27 12 -6 -49 c-3 -27 -1 -54 4 -59 5 -5 7 -16 4 -24 -8 -20
-212 -11 -225 11 -13 21 5 36 25 20 12 -10 26 -10 75 0 70 15 79 30 17 30 -23
0 -52 7 -65 15 -16 12 -26 13 -42 5 -17 -9 -20 -8 -20 12 0 13 4 28 8 34 14
21 61 31 78 16z m161 -229 c3 -8 -2 -22 -12 -33 -16 -18 -17 -21 -1 -44 19
-30 21 -62 4 -69 -10 -4 -10 -8 -1 -14 11 -8 13 -39 16 -383 l2 -185 -47 -3
c-28 -2 -61 3 -80 12 -18 9 -51 18 -72 20 -50 6 -63 19 -49 48 6 13 14 31 17
41 3 9 15 17 26 17 11 0 20 7 20 15 0 17 -23 20 -50 5 -18 -10 -19 -6 -16 67
5 108 -2 123 -58 123 -28 0 -46 5 -49 14 -4 11 5 14 40 13 54 0 73 18 68 66
-14 112 -14 118 7 139 14 14 17 23 9 27 -7 4 -13 37 -15 73 l-2 66 119 -1 c91
0 120 -4 124 -14z"/>
<path d="M3241 3411 c-35 -9 -66 -73 -51 -101 12 -22 12 -22 26 -2 7 11 28 23
46 27 47 11 138 11 171 1 25 -7 28 -6 25 9 -8 42 -151 86 -217 66z"/>
<path d="M2998 2953 c-36 -14 -49 -35 -29 -47 5 -3 46 -8 90 -10 66 -3 85 -7
96 -22 11 -15 16 -17 26 -6 7 6 32 12 56 12 24 0 43 3 43 8 0 4 -26 24 -58 45
-53 33 -65 37 -123 36 -35 0 -81 -7 -101 -16z"/>
<path d="M3701 1333 c-1 -24 10 -145 23 -270 14 -126 27 -261 30 -301 3 -41 8
-77 11 -82 2 -4 9 -47 15 -96 6 -49 15 -120 20 -159 6 -38 12 -108 14 -155 5
-120 17 -210 28 -210 5 0 7 -13 3 -30 -6 -27 -4 -30 20 -30 21 0 25 4 21 18
-3 9 -10 78 -15 152 -6 74 -15 158 -20 185 -6 28 -15 84 -21 125 -6 41 -15
100 -20 130 -6 30 -26 179 -45 330 -43 335 -62 454 -64 393z"/>
<path d="M4321 955 c-1 -27 21 -219 39 -330 6 -38 15 -107 20 -152 9 -93 18
-126 30 -118 20 12 20 81 1 138 -14 40 -19 75 -16 109 6 71 -5 138 -21 138 -8
0 -14 1 -14 3 -1 1 -3 32 -6 69 -5 56 -32 173 -33 143z"/>
<path d="M4445 128 c7 -40 13 -87 14 -110 1 -17 24 -18 337 -18 327 0 378 5
286 29 -20 6 -92 12 -159 15 -119 5 -308 31 -328 45 -5 4 -31 15 -57 25 -25 9
-52 24 -58 32 -23 27 -41 17 -35 -18z"/>
</g>
</svg>
